<svg xmlns="http://www.w3.org/2000/svg" viewBox="0 0 512 512">
  <defs>
    <linearGradient id="g" x1="0" y1="0" x2="1" y2="1">
      <stop offset="0%" stop-color="#244d2f"/>
      <stop offset="55%" stop-color="#6b8f3a"/>
      <stop offset="100%" stop-color="#c79d45"/>
    </linearGradient>
  </defs>
  <rect width="512" height="512" rx="112" fill="url(#g)"/>
  <path d="M116 340c71-9 113-46 133-110 19 63 65 101 147 110-33 34-79 55-140 55-62 0-109-21-140-55Z" fill="#fff7e3" opacity=".96"/>
  <path d="M258 118c44 55 55 109 32 162-15-24-35-39-61-46-8-41 1-80 29-116Z" fill="#fff7e3" opacity=".94"/>
  <path d="M162 271c-9-57 6-102 47-135-7 58 4 101 32 130-25-13-51-12-79 5Z" fill="#fff7e3" opacity=".72"/>
  <path d="M304 263c32-32 45-75 39-127 40 33 56 77 47 133-31-16-59-18-86-6Z" fill="#fff7e3" opacity=".72"/>
</svg>